<?xml version="1.0" standalone="no"?><!DOCTYPE svg PUBLIC "-//W3C//DTD SVG 1.1//EN" "http://www.w3.org/Graphics/SVG/1.1/DTD/svg11.dtd"><svg t="1715048545106" class="icon" viewBox="0 0 1024 1024" version="1.1" xmlns="http://www.w3.org/2000/svg" p-id="1267" xmlns:xlink="http://www.w3.org/1999/xlink" width="200" height="200"><path d="M687.6 798.7c-45.8 0-83.1-37.3-83.1-83.1s37.3-83.1 83.1-83.1 83.1 37.3 83.1 83.1-37.3 83.1-83.1 83.1z m0-136.3c-29.3 0-53.1 23.8-53.1 53.1s23.8 53.1 53.1 53.1 53.1-23.8 53.1-53.1-23.8-53.1-53.1-53.1z" p-id="1268"></path><path d="M635.1 912.4c-2.6 0-5.2-0.7-7.6-2.1l-80.6-47.2c-4.1-2.4-6.8-6.5-7.3-11.2-0.5-4.7 1.2-9.4 4.6-12.6 12.7-12.1 15.8-31.3 7.5-46.8-8.3-15.5-26-23.5-43.1-19.6-4.5 1-9.1 0-12.7-2.9-3.6-2.8-5.7-7.2-5.7-11.7V670c0-4.6 2.1-8.9 5.7-11.7 3.6-2.8 8.3-3.9 12.7-2.9 17.1 3.9 34.8-4.1 43.1-19.6 8.3-15.5 5.2-34.7-7.5-46.8-3.4-3.2-5.1-7.9-4.6-12.6 0.5-4.7 3.3-8.8 7.3-11.2l80.6-47.2c4-2.4 8.9-2.7 13.2-0.9 4.3 1.8 7.6 5.4 8.8 9.9 4.6 16.9 20.1 28.7 37.6 28.7 17.6 0 33-11.8 37.6-28.7 1.2-4.5 4.5-8.2 8.8-9.9 4.3-1.8 9.2-1.4 13.2 0.9l81.4 47.2c4.1 2.4 6.8 6.5 7.4 11.2s-1.1 9.4-4.6 12.6c-12.7 12.1-15.8 31.3-7.5 46.8 8.3 15.5 26 23.5 43.1 19.6 4.5-1 9.1 0 12.7 2.9 3.6 2.8 5.7 7.2 5.7 11.7v88.3c0 4.6-2.1 8.9-5.7 11.7-3.6 2.8-8.3 3.9-12.7 2.9-17.1-3.9-34.8 4.1-43.1 19.6s-5.2 34.7 7.5 46.8c3.4 3.3 5.1 7.9 4.6 12.6s-3.3 8.9-7.4 11.2l-81.4 47.2c-4 2.3-8.9 2.7-13.2 0.9-4.3-1.8-7.5-5.4-8.8-9.9-4.6-16.9-20.1-28.7-37.6-28.7-17.6 0-33 11.8-37.6 28.7-1.2 4.5-4.5 8.2-8.8 9.9-1.7 0.9-3.7 1.2-5.6 1.2z m52.1-69.7c24.6 0 46.8 13.1 59.1 33.4l52-30.2c-11.8-20.4-12.7-46-1.2-67.5 11.7-21.8 34-35.3 57.9-36.3v-55.6c-23.9-1-46.2-14.5-57.9-36.3-11.6-21.5-10.7-47.1 1.2-67.5l-52-30.2c-12.3 20.3-34.5 33.4-59.1 33.4-24.5 0-46.8-13.1-59.1-33.3l-51.3 30c11.9 20.4 12.8 46 1.2 67.5-11.7 21.8-34 35.3-57.9 36.3V742c23.9 1 46.2 14.5 57.9 36.3 11.6 21.5 10.7 47.2-1.2 67.5l51.3 30c12.3-20.1 34.6-33.1 59.1-33.1zM476.7 532.6c-117.7 0-213.5-95.8-213.5-213.5S359 105.6 476.7 105.6s213.5 95.8 213.5 213.5-95.7 213.5-213.5 213.5z m0-397c-101.2 0-183.5 82.3-183.5 183.5s82.3 183.5 183.5 183.5 183.5-82.3 183.5-183.5c0-101.1-82.3-183.5-183.5-183.5z" p-id="1269"></path><path d="M151.6 879.1c-8.3 0-15-6.7-15-15 0-48.8 9.6-96.2 28.4-140.8 18.2-43.1 44.3-81.8 77.5-115s71.9-59.3 115-77.5c44.6-18.9 92-28.4 140.8-28.4 8.3 0 15 6.7 15 15s-6.7 15-15 15c-182.9 0-331.8 148.8-331.8 331.8 0.1 8.2-6.6 14.9-14.9 14.9z" p-id="1270"></path></svg>